<?xml version="1.0" standalone="no"?>
<!DOCTYPE svg PUBLIC "-//W3C//DTD SVG 20010904//EN"
 "http://www.w3.org/TR/2001/REC-SVG-20010904/DTD/svg10.dtd">
<svg version="1.0" xmlns="http://www.w3.org/2000/svg"
 width="512.000000pt" height="512.000000pt" viewBox="0 0 512.000000 512.000000"
 preserveAspectRatio="xMidYMid meet">
<metadata>
Created by potrace 1.14, written by Peter Selinger 2001-2017
</metadata>
<g transform="translate(0.000000,512.000000) scale(0.100000,-0.100000)"
fill="#000000" stroke="none">
<path d="M3790 3774 c-104 -20 -205 -62 -280 -119 -38 -28 -770 -755 -770
-765 0 -3 35 -40 78 -83 l78 -78 373 374 c378 379 408 405 511 436 104 32 245
11 340 -51 45 -29 546 -519 667 -651 115 -127 135 -326 48 -486 -34 -63 -651
-686 -717 -725 -134 -78 -277 -83 -417 -15 -58 29 -157 125 -1060 1029 -639
640 -1016 1010 -1052 1033 -203 129 -446 142 -659 35 -70 -35 -106 -63 -210
-164 -257 -250 -556 -550 -587 -590 -77 -98 -124 -230 -128 -364 -4 -111 7
-180 42 -270 48 -122 95 -178 447 -528 331 -329 344 -341 426 -381 109 -52
194 -73 300 -74 135 0 267 41 381 120 41 29 779 756 779 768 0 9 -148 155
-157 155 -5 0 -174 -165 -375 -368 -253 -254 -380 -375 -415 -394 -146 -80
-333 -68 -461 30 -26 19 -185 174 -353 343 -285 285 -309 312 -345 385 -38 75
-39 81 -38 178 0 114 21 185 75 253 41 52 604 618 654 657 82 64 156 89 260
89 87 -1 165 -24 230 -68 28 -19 493 -477 1035 -1018 702 -702 1003 -996 1049
-1025 219 -142 492 -141 715 2 55 35 662 631 728 716 84 106 128 231 133 375
5 155 -30 276 -116 402 -44 64 -671 691 -732 732 -141 96 -320 135 -477 105z"/>
</g>
</svg>
